<svg xmlns="http://www.w3.org/2000/svg" xmlns:xlink="http://www.w3.org/1999/xlink" width="60" height="72" x="0" y="0" fill="#8899A6" enable-background="new 0 0 60 72" version="1.1" viewBox="0 0 60 72" xml:space="preserve"><path d="M52,9H8c-2.757,0-5,2.243-5,5v44c0,2.757,2.243,5,5,5h44c2.757,0,5-2.243,5-5V14C57,11.243,54.757,9,52,9z M51,56c0,0.553-0.447,1-1,1H10c-0.553,0-1-0.447-1-1V16c0-0.553,0.447-1,1-1h40c0.553,0,1,0.447,1,1V56z"/><rect width="12.115" height="4" x="13.885" y="32"/><rect width="12.115" height="4" x="13.885" y="40"/><rect width="12.115" height="4" x="13.885" y="48"/><rect width="32" height="8.096" x="14" y="20"/><rect width="15.963" height="20" x="30.038" y="32"/></svg>